<svg width="382" height="52" viewBox="0 0 382 52" fill="none" xmlns="http://www.w3.org/2000/svg">
<rect x="1" y="1" width="60" height="50" rx="5" stroke="#D0DEF1"/>
<g clip-path="url(#clip0_335_1287)">
<mask id="mask0_335_1287" style="mask-type:luminance" maskUnits="userSpaceOnUse" x="10" y="6" width="41" height="41">
<path d="M10.6154 6.5L51 6.5L51 46.5L10.6154 46.5L10.6154 6.5Z" fill="white"/>
</mask>
<g mask="url(#mask0_335_1287)">
<path fill-rule="evenodd" clip-rule="evenodd" d="M49.2425 36.7937C45.4769 40.5233 39.0187 37.864 39.0187 32.6001C39.0187 30.3673 40.2649 28.4237 42.1059 27.4109L41.0205 24.4343L39.0597 25.8265L36.3384 31.1265L36.7076 34.6374L26.6603 34.6718L23.2955 33.4828L22.5366 33.4749C22.3663 34.6562 21.8236 35.8172 20.8376 36.7937C17.0721 40.5234 10.6139 37.864 10.6139 32.6001C10.6139 29.3251 13.2957 26.6673 16.6037 26.6673C19.8835 26.6673 22.1599 29.1017 22.5399 31.8425L22.9532 31.8456C22.5699 28.8113 20.0159 26.1988 16.6431 26.1988C14.7863 26.1988 12.9344 27.0379 11.805 28.3269C11.4012 28.7878 11.2024 28.3004 11.0762 27.8223C9.65488 13.5115 13.1853 20.9158 14.0088 23.5303C14.2565 22.5584 22.051 22.3428 21.7069 23.6193C21.1185 25.8021 25.7248 25.0428 26.8212 24.785C28.1889 21.2912 34.6268 16.813 39.6591 21.3772C39.7254 21.3272 39.7932 21.2865 39.861 21.2538L39.3625 19.8834C37.531 20.2303 37.0357 18.0991 39.3767 18.0647L39.1921 17.1647L38.6321 16.66C38.2693 17.3224 37.9553 17.3834 37.1619 17.8224L37.1193 14.4678C38.9887 14.5162 39.1164 15.3131 38.8167 16.2365L39.5487 16.8959C39.5976 16.9397 39.6212 17.0022 39.6212 17.0631L39.809 18.0615C40.5993 18.074 40.522 18.2615 41.0395 19.6849C41.1736 19.4709 41.3502 19.2631 41.5695 19.0708L43.8616 18.7818L43.7985 22.9523L42.1452 22.7148C42.6548 24.1148 43.1659 25.5132 43.6755 26.9131C44.1188 26.8318 44.5557 26.6756 45.0069 26.6693C50.3231 26.5943 53.0067 33.0662 49.2408 36.7958L49.2425 36.7937ZM20.0048 33.4515L15.9695 33.4156L15.9821 31.7828L20.0222 31.8187C19.8802 31.2046 19.5679 30.6203 19.0836 30.1422C16.8782 27.9578 13.0953 29.514 13.0953 32.5983C13.0953 35.6828 16.8783 37.2392 19.0836 35.0546C19.5473 34.5953 19.8533 34.039 20.0033 33.4515H20.0048ZM44.4973 29.1639L45.693 32.4452L44.1423 32.9952L42.9687 29.7763C42.1042 30.3795 41.5 31.367 41.5 32.5983C41.5 35.6826 45.2829 37.2391 47.4882 35.0545C48.8575 33.6967 48.8575 31.4983 47.4882 30.1421C46.6253 29.2874 45.5211 29.0061 44.4973 29.1639Z" fill="#D1D5DB"/>
</g>
</g>
<rect x="81" y="1" width="60" height="50" rx="5" stroke="#D0DEF1"/>
<path fill-rule="evenodd" clip-rule="evenodd" d="M128.815 25.9483C127.344 24.9681 125.506 24.1108 122.811 23.4971C115.705 19.331 109.578 17.2482 95.2441 19.822C95.4896 20.1901 95.8561 20.3128 96.1016 20.3128C94.1413 21.4157 93.1611 23.2533 93.0385 25.2137C93.0385 25.4592 92.5476 25.7046 92.5476 26.0712V29.9918C92.793 30.8493 93.2823 31.0947 94.0186 31.0947L94.3867 31.2174V30.8492C94.3867 28.8889 95.9789 27.2968 97.9392 27.2968C99.8995 27.2968 101.492 28.8889 101.492 30.8492C101.492 31.2174 101.369 31.584 101.246 31.9521L120.115 31.9521V31.0946C120.115 29.1343 121.707 27.5422 123.667 27.5422C125.627 27.5422 127.22 29.1343 127.22 31.0946C127.22 31.4628 127.22 31.7066 127.097 31.9521L130.405 31.7067C130.774 31.4612 130.774 30.7266 130.528 29.9918C130.528 29.7463 130.651 29.7463 130.651 29.5009C130.528 29.0101 130.528 28.5208 130.283 28.0299C130.283 27.9072 130.16 27.9072 130.16 27.7845C129.792 27.0497 129.303 26.1923 128.812 25.9468L128.815 25.9483ZM97.939 27.6632C96.1015 27.6632 94.7531 29.1343 94.7531 30.8491C94.7531 32.564 96.1015 34.035 97.939 34.035C99.6539 34.035 101.125 32.564 101.125 30.8491C101.125 29.1343 99.6539 27.6632 97.939 27.6632ZM97.939 28.5206C96.5907 28.5206 95.6106 29.6235 95.6106 30.8491C95.6106 32.1974 96.5907 33.1775 97.939 33.1775C99.1646 33.1775 100.267 32.1974 100.267 30.8491C100.267 29.6235 99.1646 28.5206 97.939 28.5206ZM123.668 27.9086C121.831 27.9086 120.482 29.3796 120.482 31.0945C120.482 32.9321 121.831 34.2805 123.668 34.2805C125.383 34.2805 126.854 32.9321 126.854 31.0945C126.854 29.3796 125.383 27.9086 123.668 27.9086ZM123.668 28.7661C122.32 28.7661 121.34 29.869 121.34 31.0945C121.34 32.4429 122.32 33.423 123.668 33.423C124.894 33.423 125.997 32.4429 125.997 31.0945C125.997 29.869 124.894 28.7661 123.668 28.7661ZM101.002 19.6991C102.962 19.4537 104.922 19.3309 106.76 19.3309L107.495 23.4971L99.899 22.8851L101.002 19.6991ZM100.39 19.8218L99.287 22.7623L97.0812 21.7822C97.5721 21.0474 98.0614 20.5566 98.6734 20.0673C99.2854 19.9446 99.7763 19.8218 100.388 19.8218H100.39ZM108.966 23.6197L108.231 19.4537C111.172 19.5763 113.989 20.1883 116.807 21.1685L117.419 24.3544L108.965 23.6197H108.966ZM118.033 24.3544L117.298 21.414C118.89 22.026 120.361 22.8851 121.831 23.8652C120.482 24.1106 119.258 24.3561 118.033 24.3561L118.033 24.3544Z" fill="#D1D5DB"/>
<rect x="161" y="1" width="60" height="50" rx="5" stroke="#D0DEF1"/>
<path d="M200.088 32.3571C200.101 32.3248 200.121 32.2956 200.139 32.2616C200.181 32.1709 200.226 32.0786 200.275 31.9928C200.299 31.9555 200.325 31.9215 200.349 31.8843C200.399 31.8099 200.448 31.7305 200.506 31.6609C200.539 31.6187 200.577 31.5863 200.61 31.5491C200.668 31.4875 200.722 31.4212 200.785 31.3629C200.822 31.3256 200.864 31.2965 200.904 31.2641C200.966 31.2107 201.032 31.1524 201.099 31.107C201.141 31.0779 201.189 31.0536 201.235 31.0245C201.306 30.9791 201.376 30.9338 201.45 30.8966C201.5 30.8722 201.549 30.8512 201.599 30.8301C201.674 30.7978 201.748 30.7589 201.831 30.7313C201.881 30.7152 201.934 30.7022 201.988 30.686C202.062 30.6649 202.142 30.6407 202.219 30.6245L203.019 30.6293C204.085 30.6423 205.013 31.2965 205.387 32.2956L205.511 32.6389C205.516 32.7101 205.52 32.7798 205.52 32.8511C205.52 34.4136 204.247 35.6865 202.684 35.6865C201.162 35.6865 199.915 34.48 199.849 32.9757C199.894 32.9141 199.928 32.8397 199.948 32.7554C199.99 32.6146 200.035 32.4818 200.088 32.3571Z" fill="#D1D5DB"/>
<path d="M199.333 30.5205C199.436 30.5529 199.545 30.5788 199.652 30.5869C199.665 30.595 199.734 30.595 199.78 30.595L200.426 30.5999C200.397 30.6241 200.367 30.6532 200.338 30.6824C200.285 30.7278 200.235 30.7731 200.184 30.8233C200.113 30.8897 200.052 30.9593 199.985 31.0306C199.94 31.084 199.895 31.1342 199.852 31.1877C199.794 31.2621 199.736 31.3415 199.682 31.424C199.645 31.4823 199.603 31.5406 199.571 31.5989C199.521 31.6816 199.475 31.7738 199.435 31.8597C199.406 31.9212 199.373 31.9844 199.344 32.0459C199.336 32.0669 199.323 32.088 199.315 32.1074C199.187 31.6476 199.179 31.1666 199.291 30.6776C199.304 30.629 199.32 30.574 199.333 30.5205Z" fill="#D1D5DB"/>
<path d="M205.411 22.6206L208.164 26.7046V27.1563C208.164 27.3685 207.981 27.5466 207.766 27.5466H200.893V21.8984H203.941C204.524 21.8984 205.06 22.1607 205.411 22.6206Z" fill="#D1D5DB"/>
<path d="M199.806 20.7676H204.39C205.477 20.7676 206.476 21.3101 207.069 22.2185L209.598 26.0984C209.951 26.6409 210.137 27.2676 210.137 27.9136V29.1654H209.587C208.803 29.1654 208.165 29.8083 208.165 30.5952V31.3369C208.165 32.1206 208.803 32.7586 209.587 32.7586L210.141 32.7603V32.9805C210.141 33.2963 209.883 33.5522 209.569 33.5522H207.127C206.883 33.5522 206.67 33.4032 206.585 33.1748L206.149 32.0056C205.66 30.6908 204.437 29.8293 203.035 29.8083L202.185 29.8002L199.785 29.7839C199.602 29.7678 199.495 29.7224 199.413 29.6431C199.28 29.5265 199.218 29.3775 199.218 29.2075L199.217 23.1091V21.3635C199.209 21.0396 199.482 20.7676 199.806 20.7676ZM200.093 27.943C200.093 28.1664 200.276 28.3494 200.499 28.3494H207.77C208.434 28.3494 208.976 27.815 208.976 27.1511V26.5795C208.976 26.5001 208.952 26.4224 208.905 26.3561L206.07 22.1522C205.546 21.472 204.781 21.0947 203.947 21.0947H200.494C200.271 21.0947 200.088 21.2777 200.088 21.5012V27.9428L200.093 27.943Z" fill="#D1D5DB"/>
<path d="M208.976 31.3388V30.5971C208.976 30.2538 209.25 29.9753 209.59 29.9753L210.141 29.9736V31.9557H209.59C209.245 31.9508 208.976 31.6821 208.976 31.3388Z" fill="#D1D5DB"/>
<path d="M197.078 23.1093V31.6203L171.857 31.6203V17.3218L197.078 17.3218V23.1093Z" fill="#D1D5DB"/>
<path d="M178.89 32.8433C178.89 33.0716 178.914 33.2951 178.956 33.5185C178.961 33.5315 178.956 33.5428 178.961 33.5558H174.058L174.056 32.4287H178.916C178.898 32.5696 178.89 32.7057 178.89 32.8433Z" fill="#D1D5DB"/>
<path d="M198.404 29.2106C198.404 29.3094 198.417 29.4098 198.433 29.5054C198.446 29.5717 198.47 29.6333 198.494 29.6964C198.502 29.7256 198.51 29.7547 198.523 29.779H197.885V23.5156H198.404V29.2106Z" fill="#D1D5DB"/>
<path d="M179.733 32.4287H185.337C185.337 32.4368 185.342 32.4449 185.342 32.4578C185.358 32.5906 185.371 32.7185 185.371 32.8433C185.371 33.1752 185.313 33.5023 185.193 33.8181C184.787 34.9338 183.718 35.6787 182.531 35.6787C181.346 35.6787 180.28 34.9322 179.869 33.8181C179.749 33.5023 179.691 33.1752 179.691 32.84C179.691 32.7154 179.703 32.5874 179.72 32.4546C179.728 32.4498 179.733 32.44 179.733 32.4287Z" fill="#D1D5DB"/>
<path d="M186.183 32.8429C186.183 32.7069 186.175 32.5692 186.159 32.4332L197.078 32.4316V33.5554H186.109C186.114 33.5425 186.109 33.5311 186.114 33.5182C186.159 33.2947 186.183 33.0712 186.183 32.8429Z" fill="#D1D5DB"/>
<rect x="241" y="1" width="60" height="50" rx="5" stroke="#D0DEF1"/>
<path d="M285.897 15.962C286.413 15.9874 286.862 16.4657 286.854 16.9812C288.014 16.9872 289.143 16.991 290.32 16.9969C291.319 17.491 293.832 24.5066 293.832 30.5149L294.836 30.9854V33.024C293.35 33.0299 290.163 33.024 288.297 33.024C288.297 30.264 286.039 28.0059 283.279 28.0059C280.519 28.0059 278.26 30.264 278.26 33.024C272.829 33.024 269.241 33.0299 264.209 33.024C264.209 30.264 261.951 28.0059 259.191 28.0059C256.431 28.0059 254.173 30.264 254.173 33.024L247.163 33.024C247.163 28.2351 247.289 22.2585 247.289 16.9969C252.458 16.9969 257.562 16.9891 262.688 16.9812C262.681 16.4462 263.173 15.9541 263.708 15.962L285.897 15.962ZM288.469 18.9729H282.777C282.251 18.9729 281.773 19.4512 281.773 19.9766V25.9984C281.773 26.5237 282.251 27.002 282.777 27.002H290.304C290.829 27.002 291.307 26.5237 291.307 25.9984C291.307 23.2227 290.206 20.9606 289.128 19.3964C288.977 19.1749 288.734 19.018 288.469 18.9729ZM279.876 18.9729L271.235 18.9729C270.709 18.9729 270.231 19.4512 270.231 19.9766V25.9984C270.231 26.5237 270.709 27.002 271.235 27.002L279.766 27.002C280.291 27.002 280.769 26.5237 280.769 25.9984V19.9766C280.773 19.4864 280.364 19.0258 279.876 18.9729ZM268.334 18.9729H259.693C259.168 18.9729 258.689 19.4512 258.689 19.9766V25.9984C258.689 26.5237 259.168 27.002 259.693 27.002H268.224C268.749 27.002 269.227 26.5237 269.227 25.9984V19.9766C269.231 19.4864 268.822 19.0258 268.334 18.9729ZM256.792 18.9729L250.158 18.9729C249.633 18.9729 249.155 19.4512 249.155 19.9766V25.9984C249.155 26.5237 249.633 27.002 250.158 27.002H256.682C257.207 27.002 257.686 26.5237 257.686 25.9984V19.9766C257.69 19.4864 257.28 19.0258 256.792 18.9729ZM287.716 20.9802C288.408 22.0681 289.012 23.3991 289.206 24.9947H283.781V20.9802H287.716ZM278.762 20.9802V24.9947L272.238 24.9947V20.9802L278.762 20.9802ZM267.22 20.9802V24.9947H260.697V20.9802H267.22ZM255.678 20.9802V24.9947H251.162V20.9802L255.678 20.9802ZM283.278 29.0093C285.495 29.0093 287.293 30.8067 287.293 33.0238C287.293 35.2408 285.495 37.0384 283.278 37.0384C281.061 37.0384 279.264 35.2408 279.264 33.0238C279.264 30.8067 281.061 29.0093 283.278 29.0093ZM259.191 29.0093C261.408 29.0093 263.206 30.8067 263.206 33.0238C263.206 35.2408 261.408 37.0384 259.191 37.0384C256.974 37.0384 255.177 35.2408 255.177 33.0238C255.177 30.8067 256.974 29.0093 259.191 29.0093ZM283.278 31.5184C282.453 31.5184 281.773 32.1985 281.773 33.0238C281.773 33.849 282.453 34.5293 283.278 34.5293C284.104 34.5293 284.784 33.849 284.784 33.0238C284.784 32.1985 284.104 31.5184 283.278 31.5184ZM259.191 31.5184C258.366 31.5184 257.686 32.1985 257.686 33.0238C257.686 33.849 258.366 34.5293 259.191 34.5293C260.016 34.5293 260.697 33.849 260.697 33.0238C260.697 32.1985 260.016 31.5184 259.191 31.5184ZM283.278 32.522C283.561 32.522 283.78 32.7416 283.78 33.0238C283.78 33.3061 283.561 33.5256 283.278 33.5256C282.996 33.5256 282.777 33.3061 282.777 33.0238C282.777 32.7416 282.996 32.522 283.278 32.522ZM259.191 32.522C259.473 32.522 259.693 32.7416 259.693 33.0238C259.693 33.3061 259.473 33.5256 259.191 33.5256C258.909 33.5256 258.689 33.3061 258.689 33.0238C258.689 32.7416 258.909 32.522 259.191 32.522Z" fill="#D1D5DB"/>
<rect x="321" y="1" width="60" height="50" rx="5" stroke="#D0DEF1"/>
<g clip-path="url(#clip1_335_1287)">
<mask id="mask1_335_1287" style="mask-type:luminance" maskUnits="userSpaceOnUse" x="325" y="1" width="52" height="51">
<path d="M325.5 1L376.5 1V52L325.5 52V1Z" fill="white"/>
</mask>
<g mask="url(#mask1_335_1287)">
<path fill-rule="evenodd" clip-rule="evenodd" d="M370.971 29.4941C369.66 29.4941 368.596 30.5579 368.596 31.8688C368.596 33.1796 369.66 34.2435 370.971 34.2435C372.282 34.2435 373.344 33.1796 373.344 31.8688C373.344 30.556 372.282 29.4941 370.971 29.4941ZM370.971 30.7612C371.583 30.7612 372.077 31.2573 372.077 31.8688C372.077 32.4804 371.581 32.9765 370.971 32.9765C370.359 32.9765 369.865 32.4805 369.865 31.8688C369.863 31.2573 370.359 30.7612 370.971 30.7612Z" fill="#D1D5DB"/>
<path fill-rule="evenodd" clip-rule="evenodd" d="M353.545 29.4941C352.234 29.4941 351.173 30.5579 351.173 31.8688C351.173 33.1796 352.236 34.2435 353.545 34.2435C354.856 34.2435 355.918 33.1796 355.918 31.8688C355.918 30.556 354.856 29.4941 353.545 29.4941ZM353.545 30.7612C354.155 30.7612 354.651 31.2573 354.651 31.8688C354.651 32.4804 354.155 32.9765 353.545 32.9765C352.934 32.9765 352.438 32.4805 352.438 31.8688C352.438 31.2573 352.934 30.7612 353.545 30.7612Z" fill="#D1D5DB"/>
<path fill-rule="evenodd" clip-rule="evenodd" d="M365.418 22.3701C361.481 22.3721 361.485 22.3721 355.921 22.3721L348.797 27.1235V31.8748L350.883 33.4606C350.604 32.9945 350.444 32.4506 350.444 31.8689C350.444 30.1556 351.833 28.7671 353.544 28.7671C355.256 28.7671 356.644 30.1557 356.644 31.8689C356.644 32.4506 356.483 32.9965 356.204 33.4606H368.242C367.969 32.9925 367.812 32.4486 367.812 31.8689C367.812 30.1237 369.225 28.7112 370.968 28.7112C372.709 28.7112 374.123 30.1237 374.123 31.8689C374.123 32.4486 373.966 32.9945 373.693 33.4606L376.5 31.8549V27.1235L369.376 26.3307L365.418 22.3701ZM364.627 23.1631L367.792 26.3326H360.67V23.1631L364.627 23.1631ZM359.885 23.1631V26.3326H353.539L356.704 23.165L359.885 23.1631Z" fill="#D1D5DB"/>
<path fill-rule="evenodd" clip-rule="evenodd" d="M337.721 29.4941C336.41 29.4941 335.348 30.5579 335.348 31.8688C335.348 33.1796 336.412 34.2435 337.721 34.2435C339.032 34.2435 340.094 33.1796 340.094 31.8688C340.092 30.556 339.03 29.4941 337.721 29.4941ZM337.721 30.7612C338.333 30.7612 338.827 31.2573 338.827 31.8688C338.827 32.4804 338.331 32.9765 337.721 32.9765C337.112 32.9765 336.615 32.4805 336.615 31.8688C336.613 31.2573 337.11 30.7612 337.721 30.7612Z" fill="#D1D5DB"/>
<path fill-rule="evenodd" clip-rule="evenodd" d="M349.034 30.3828H349.574C349.682 30.3828 349.77 30.4705 349.77 30.5781V31.9667C349.77 32.0742 349.682 32.1619 349.574 32.1619H345.227V31.1439H348.644C348.752 31.1439 348.839 31.0542 348.839 30.9487V30.5781C348.839 30.4706 348.927 30.3828 349.034 30.3828Z" fill="#D1D5DB"/>
<path fill-rule="evenodd" clip-rule="evenodd" d="M328.562 22.3165C328.61 22.2707 328.673 22.2407 328.743 22.2407H332.43C332.502 22.2407 332.566 22.2707 332.612 22.3165C332.66 22.3643 332.688 22.428 332.688 22.4977V32.1123H328.484V22.4977C328.486 22.428 328.514 22.3623 328.562 22.3165ZM329.08 26.1135C329.08 26.2331 329.177 26.3307 329.299 26.3307H331.881C332 26.3307 332.098 26.2331 332.098 26.1135V23.0098C332.098 22.8902 332 22.7926 331.881 22.7926H329.299C329.179 22.7926 329.08 22.8902 329.08 23.0098V26.1135Z" fill="#D1D5DB"/>
<path fill-rule="evenodd" clip-rule="evenodd" d="M330.734 18.7563C332.932 18.7583 335.472 18.7583 337.984 18.7583C343.427 18.7583 347.863 23.2009 347.863 28.6457V31.6399C347.863 32.6419 347.045 33.4608 346.044 33.4608H340.382C340.661 32.9946 340.821 32.4507 340.821 31.8691C340.821 30.1557 339.432 28.7672 337.721 28.7672C336.01 28.7672 334.621 30.1558 334.621 31.8691C334.621 32.4507 334.78 32.9966 335.059 33.4608H327.32C326.315 33.4608 325.499 32.6419 325.499 31.6399V23.994C325.501 21.1094 327.852 18.7563 330.734 18.7563ZM334.623 25.8428C334.623 26.1117 334.842 26.3308 335.111 26.3308L344.454 26.3328C346.14 26.3328 343.215 21.8166 341.998 21.8166H335.109C334.84 21.8166 334.621 22.0356 334.621 22.3047L334.623 25.8428ZM328.027 32.3412C328.027 32.4667 328.128 32.5703 328.256 32.5703H332.92C333.045 32.5703 333.149 32.4687 333.149 32.3412V22.4977C333.149 22.3004 333.067 22.1212 332.938 21.9917C332.808 21.8621 332.629 21.7805 332.432 21.7805L328.744 21.7805C328.547 21.7805 328.367 21.8601 328.238 21.9917C328.107 22.1231 328.027 22.3004 328.027 22.4977L328.029 32.3412H328.027Z" fill="#D1D5DB"/>
</g>
</g>
<defs>
<clipPath id="clip0_335_1287">
<rect width="40.3846" height="25" fill="white" transform="matrix(-1 0 0 1 51 14)"/>
</clipPath>
<clipPath id="clip1_335_1287">
<rect width="51" height="17" fill="white" transform="matrix(-1 0 0 1 376.5 18)"/>
</clipPath>
</defs>
</svg>
