<svg width="257" height="56" viewBox="0 0 257 56" fill="none" xmlns="http://www.w3.org/2000/svg">
<rect x="0.5" y="0.5" width="256" height="55" rx="9.5" fill="#F9FAFB"/>
<rect x="0.5" y="0.5" width="256" height="55" rx="9.5" stroke="#E8ECF1"/>
<g clip-path="url(#clip0_335_1915)">
<path d="M25.125 37.25C22.0195 37.25 19.5 34.7305 19.5 31.625C19.5 29.1719 21.0703 27.0859 23.2578 26.3164C23.2539 26.2109 23.25 26.1055 23.25 26C23.25 22.5469 26.0469 19.75 29.5 19.75C31.8164 19.75 33.8359 21.0078 34.918 22.8828C35.5117 22.4844 36.2305 22.25 37 22.25C39.0703 22.25 40.75 23.9297 40.75 26C40.75 26.4766 40.6602 26.9297 40.5 27.3516C42.7812 27.8125 44.5 29.832 44.5 32.25C44.5 35.0117 42.2617 37.25 39.5 37.25H25.125ZM28.2109 30.7266L31.3359 33.8516C31.7031 34.2188 32.2969 34.2188 32.6602 33.8516L35.7852 30.7266C36.1523 30.3594 36.1523 29.7656 35.7852 29.4023C35.418 29.0391 34.8242 29.0352 34.4609 29.4023L32.9375 30.9258V25.6875C32.9375 25.168 32.5195 24.75 32 24.75C31.4805 24.75 31.0625 25.168 31.0625 25.6875V30.9258L29.5391 29.4023C29.1719 29.0352 28.5781 29.0352 28.2148 29.4023C27.8516 29.7695 27.8477 30.3633 28.2148 30.7266H28.2109Z" fill="#0168DE"/>
</g>
<path d="M59.792 22.454C61.16 22.454 62.342 22.712 63.338 23.228C64.346 23.732 65.114 24.458 65.642 25.406C66.182 26.354 66.452 27.47 66.452 28.754C66.452 30.038 66.182 31.154 65.642 32.102C65.114 33.038 64.346 33.758 63.338 34.262C62.342 34.754 61.16 35 59.792 35H55.886V22.454H59.792ZM59.792 33.65C61.412 33.65 62.648 33.224 63.5 32.372C64.352 31.508 64.778 30.302 64.778 28.754C64.778 27.194 64.346 25.976 63.482 25.1C62.63 24.224 61.4 23.786 59.792 23.786H57.524V33.65H59.792ZM72.9146 35.162C71.9906 35.162 71.1506 34.952 70.3946 34.532C69.6506 34.112 69.0626 33.518 68.6306 32.75C68.2106 31.97 68.0006 31.07 68.0006 30.05C68.0006 29.042 68.2166 28.154 68.6486 27.386C69.0926 26.606 69.6926 26.012 70.4486 25.604C71.2046 25.184 72.0506 24.974 72.9866 24.974C73.9226 24.974 74.7686 25.184 75.5246 25.604C76.2806 26.012 76.8746 26.6 77.3066 27.368C77.7506 28.136 77.9726 29.03 77.9726 30.05C77.9726 31.07 77.7446 31.97 77.2886 32.75C76.8446 33.518 76.2386 34.112 75.4706 34.532C74.7026 34.952 73.8506 35.162 72.9146 35.162ZM72.9146 33.722C73.5026 33.722 74.0546 33.584 74.5706 33.308C75.0866 33.032 75.5006 32.618 75.8126 32.066C76.1366 31.514 76.2986 30.842 76.2986 30.05C76.2986 29.258 76.1426 28.586 75.8306 28.034C75.5186 27.482 75.1106 27.074 74.6066 26.81C74.1026 26.534 73.5566 26.396 72.9686 26.396C72.3686 26.396 71.8166 26.534 71.3126 26.81C70.8206 27.074 70.4246 27.482 70.1246 28.034C69.8246 28.586 69.6746 29.258 69.6746 30.05C69.6746 30.854 69.8186 31.532 70.1066 32.084C70.4066 32.636 70.8026 33.05 71.2946 33.326C71.7866 33.59 72.3266 33.722 72.9146 33.722ZM93.2662 25.136L90.1882 35H88.4962L86.1202 27.17L83.7442 35H82.0522L78.9562 25.136H80.6302L82.8982 33.416L85.3462 25.136H87.0202L89.4142 33.434L91.6462 25.136H93.2662ZM99.6979 24.956C100.898 24.956 101.87 25.322 102.614 26.054C103.358 26.774 103.73 27.818 103.73 29.186V35H102.11V29.42C102.11 28.436 101.864 27.686 101.372 27.17C100.88 26.642 100.208 26.378 99.3559 26.378C98.4919 26.378 97.8019 26.648 97.2859 27.188C96.7819 27.728 96.5299 28.514 96.5299 29.546V35H94.8919V25.136H96.5299V26.54C96.8539 26.036 97.2919 25.646 97.8439 25.37C98.4079 25.094 99.0259 24.956 99.6979 24.956ZM108.044 21.68V35H106.406V21.68H108.044ZM115.137 35.162C114.213 35.162 113.373 34.952 112.617 34.532C111.873 34.112 111.285 33.518 110.853 32.75C110.433 31.97 110.223 31.07 110.223 30.05C110.223 29.042 110.439 28.154 110.871 27.386C111.315 26.606 111.915 26.012 112.671 25.604C113.427 25.184 114.273 24.974 115.209 24.974C116.145 24.974 116.991 25.184 117.747 25.604C118.503 26.012 119.097 26.6 119.529 27.368C119.973 28.136 120.195 29.03 120.195 30.05C120.195 31.07 119.967 31.97 119.511 32.75C119.067 33.518 118.461 34.112 117.693 34.532C116.925 34.952 116.073 35.162 115.137 35.162ZM115.137 33.722C115.725 33.722 116.277 33.584 116.793 33.308C117.309 33.032 117.723 32.618 118.035 32.066C118.359 31.514 118.521 30.842 118.521 30.05C118.521 29.258 118.365 28.586 118.053 28.034C117.741 27.482 117.333 27.074 116.829 26.81C116.325 26.534 115.779 26.396 115.191 26.396C114.591 26.396 114.039 26.534 113.535 26.81C113.043 27.074 112.647 27.482 112.347 28.034C112.047 28.586 111.897 29.258 111.897 30.05C111.897 30.854 112.041 31.532 112.329 32.084C112.629 32.636 113.025 33.05 113.517 33.326C114.009 33.59 114.549 33.722 115.137 33.722ZM121.737 30.032C121.737 29.024 121.941 28.142 122.349 27.386C122.757 26.618 123.315 26.024 124.023 25.604C124.743 25.184 125.541 24.974 126.417 24.974C127.281 24.974 128.031 25.16 128.667 25.532C129.303 25.904 129.777 26.372 130.089 26.936V25.136H131.745V35H130.089V33.164C129.765 33.74 129.279 34.22 128.631 34.604C127.995 34.976 127.251 35.162 126.399 35.162C125.523 35.162 124.731 34.946 124.023 34.514C123.315 34.082 122.757 33.476 122.349 32.696C121.941 31.916 121.737 31.028 121.737 30.032ZM130.089 30.05C130.089 29.306 129.939 28.658 129.639 28.106C129.339 27.554 128.931 27.134 128.415 26.846C127.911 26.546 127.353 26.396 126.741 26.396C126.129 26.396 125.571 26.54 125.067 26.828C124.563 27.116 124.161 27.536 123.861 28.088C123.561 28.64 123.411 29.288 123.411 30.032C123.411 30.788 123.561 31.448 123.861 32.012C124.161 32.564 124.563 32.99 125.067 33.29C125.571 33.578 126.129 33.722 126.741 33.722C127.353 33.722 127.911 33.578 128.415 33.29C128.931 32.99 129.339 32.564 129.639 32.012C129.939 31.448 130.089 30.794 130.089 30.05ZM133.901 30.032C133.901 29.024 134.105 28.142 134.513 27.386C134.921 26.618 135.479 26.024 136.187 25.604C136.907 25.184 137.711 24.974 138.599 24.974C139.367 24.974 140.081 25.154 140.741 25.514C141.401 25.862 141.905 26.324 142.253 26.9V21.68H143.909V35H142.253V33.146C141.929 33.734 141.449 34.22 140.813 34.604C140.177 34.976 139.433 35.162 138.581 35.162C137.705 35.162 136.907 34.946 136.187 34.514C135.479 34.082 134.921 33.476 134.513 32.696C134.105 31.916 133.901 31.028 133.901 30.032ZM142.253 30.05C142.253 29.306 142.103 28.658 141.803 28.106C141.503 27.554 141.095 27.134 140.579 26.846C140.075 26.546 139.517 26.396 138.905 26.396C138.293 26.396 137.735 26.54 137.231 26.828C136.727 27.116 136.325 27.536 136.025 28.088C135.725 28.64 135.575 29.288 135.575 30.032C135.575 30.788 135.725 31.448 136.025 32.012C136.325 32.564 136.727 32.99 137.231 33.29C137.735 33.578 138.293 33.722 138.905 33.722C139.517 33.722 140.075 33.578 140.579 33.29C141.095 32.99 141.503 32.564 141.803 32.012C142.103 31.448 142.253 30.794 142.253 30.05ZM155.382 22.454C156.75 22.454 157.932 22.712 158.928 23.228C159.936 23.732 160.704 24.458 161.232 25.406C161.772 26.354 162.042 27.47 162.042 28.754C162.042 30.038 161.772 31.154 161.232 32.102C160.704 33.038 159.936 33.758 158.928 34.262C157.932 34.754 156.75 35 155.382 35H151.476V22.454H155.382ZM155.382 33.65C157.002 33.65 158.238 33.224 159.09 32.372C159.942 31.508 160.368 30.302 160.368 28.754C160.368 27.194 159.936 25.976 159.072 25.1C158.22 24.224 156.99 23.786 155.382 23.786H153.114V33.65H155.382ZM165.048 23.534C164.736 23.534 164.472 23.426 164.256 23.21C164.04 22.994 163.932 22.73 163.932 22.418C163.932 22.106 164.04 21.842 164.256 21.626C164.472 21.41 164.736 21.302 165.048 21.302C165.348 21.302 165.6 21.41 165.804 21.626C166.02 21.842 166.128 22.106 166.128 22.418C166.128 22.73 166.02 22.994 165.804 23.21C165.6 23.426 165.348 23.534 165.048 23.534ZM165.84 25.136V35H164.202V25.136H165.84ZM172.7 24.974C173.552 24.974 174.296 25.16 174.932 25.532C175.58 25.904 176.06 26.372 176.372 26.936V25.136H178.028V35.216C178.028 36.116 177.836 36.914 177.452 37.61C177.068 38.318 176.516 38.87 175.796 39.266C175.088 39.662 174.26 39.86 173.312 39.86C172.016 39.86 170.936 39.554 170.072 38.942C169.208 38.33 168.698 37.496 168.542 36.44H170.162C170.342 37.04 170.714 37.52 171.278 37.88C171.842 38.252 172.52 38.438 173.312 38.438C174.212 38.438 174.944 38.156 175.508 37.592C176.084 37.028 176.372 36.236 176.372 35.216V33.146C176.048 33.722 175.568 34.202 174.932 34.586C174.296 34.97 173.552 35.162 172.7 35.162C171.824 35.162 171.026 34.946 170.306 34.514C169.598 34.082 169.04 33.476 168.632 32.696C168.224 31.916 168.02 31.028 168.02 30.032C168.02 29.024 168.224 28.142 168.632 27.386C169.04 26.618 169.598 26.024 170.306 25.604C171.026 25.184 171.824 24.974 172.7 24.974ZM176.372 30.05C176.372 29.306 176.222 28.658 175.922 28.106C175.622 27.554 175.214 27.134 174.698 26.846C174.194 26.546 173.636 26.396 173.024 26.396C172.412 26.396 171.854 26.54 171.35 26.828C170.846 27.116 170.444 27.536 170.144 28.088C169.844 28.64 169.694 29.288 169.694 30.032C169.694 30.788 169.844 31.448 170.144 32.012C170.444 32.564 170.846 32.99 171.35 33.29C171.854 33.578 172.412 33.722 173.024 33.722C173.636 33.722 174.194 33.578 174.698 33.29C175.214 32.99 175.622 32.564 175.922 32.012C176.222 31.448 176.372 30.794 176.372 30.05ZM181.642 23.534C181.33 23.534 181.066 23.426 180.85 23.21C180.634 22.994 180.526 22.73 180.526 22.418C180.526 22.106 180.634 21.842 180.85 21.626C181.066 21.41 181.33 21.302 181.642 21.302C181.942 21.302 182.194 21.41 182.398 21.626C182.614 21.842 182.722 22.106 182.722 22.418C182.722 22.73 182.614 22.994 182.398 23.21C182.194 23.426 181.942 23.534 181.642 23.534ZM182.434 25.136V35H180.796V25.136H182.434ZM187.224 26.486V32.3C187.224 32.78 187.326 33.122 187.53 33.326C187.734 33.518 188.088 33.614 188.592 33.614H189.798V35H188.322C187.41 35 186.726 34.79 186.27 34.37C185.814 33.95 185.586 33.26 185.586 32.3V26.486H184.308V25.136H185.586V22.652H187.224V25.136H189.798V26.486H187.224ZM191.17 30.032C191.17 29.024 191.374 28.142 191.782 27.386C192.19 26.618 192.748 26.024 193.456 25.604C194.176 25.184 194.974 24.974 195.85 24.974C196.714 24.974 197.464 25.16 198.1 25.532C198.736 25.904 199.21 26.372 199.522 26.936V25.136H201.178V35H199.522V33.164C199.198 33.74 198.712 34.22 198.064 34.604C197.428 34.976 196.684 35.162 195.832 35.162C194.956 35.162 194.164 34.946 193.456 34.514C192.748 34.082 192.19 33.476 191.782 32.696C191.374 31.916 191.17 31.028 191.17 30.032ZM199.522 30.05C199.522 29.306 199.372 28.658 199.072 28.106C198.772 27.554 198.364 27.134 197.848 26.846C197.344 26.546 196.786 26.396 196.174 26.396C195.562 26.396 195.004 26.54 194.5 26.828C193.996 27.116 193.594 27.536 193.294 28.088C192.994 28.64 192.844 29.288 192.844 30.032C192.844 30.788 192.994 31.448 193.294 32.012C193.594 32.564 193.996 32.99 194.5 33.29C195.004 33.578 195.562 33.722 196.174 33.722C196.786 33.722 197.344 33.578 197.848 33.29C198.364 32.99 198.772 32.564 199.072 32.012C199.372 31.448 199.522 30.794 199.522 30.05ZM205.585 21.68V35H203.947V21.68H205.585ZM214.813 22.454V35H213.175V22.454H214.813ZM221.511 22.454C222.879 22.454 224.061 22.712 225.057 23.228C226.065 23.732 226.833 24.458 227.361 25.406C227.901 26.354 228.171 27.47 228.171 28.754C228.171 30.038 227.901 31.154 227.361 32.102C226.833 33.038 226.065 33.758 225.057 34.262C224.061 34.754 222.879 35 221.511 35H217.605V22.454H221.511ZM221.511 33.65C223.131 33.65 224.367 33.224 225.219 32.372C226.071 31.508 226.497 30.302 226.497 28.754C226.497 27.194 226.065 25.976 225.201 25.1C224.349 24.224 223.119 23.786 221.511 23.786H219.243V33.65H221.511ZM238.719 26.126C238.719 27.17 238.359 28.04 237.639 28.736C236.931 29.42 235.845 29.762 234.381 29.762H231.969V35H230.331V22.454H234.381C235.797 22.454 236.871 22.796 237.603 23.48C238.347 24.164 238.719 25.046 238.719 26.126ZM234.381 28.412C235.293 28.412 235.965 28.214 236.397 27.818C236.829 27.422 237.045 26.858 237.045 26.126C237.045 24.578 236.157 23.804 234.381 23.804H231.969V28.412H234.381Z" fill="#0168DE"/>
<defs>
<clipPath id="clip0_335_1915">
<rect width="25" height="20" fill="white" transform="translate(19.5 18.5)"/>
</clipPath>
</defs>
</svg>
