<svg width="34" height="34" viewBox="0 0 34 34" fill="none" xmlns="http://www.w3.org/2000/svg">
<rect x="0.5" y="0.5" width="33" height="33" rx="10.5" fill="white"/>
<rect x="0.5" y="0.5" width="33" height="33" rx="10.5" stroke="#0168DE"/>
<g clip-path="url(#clip0_335_1836)">
<path d="M18 10C18 9.44687 17.5531 9 17 9C16.4469 9 16 9.44687 16 10V17.5844L13.7063 15.2906C13.3156 14.9 12.6813 14.9 12.2906 15.2906C11.9 15.6813 11.9 16.3156 12.2906 16.7063L16.2906 20.7063C16.6813 21.0969 17.3156 21.0969 17.7063 20.7063L21.7063 16.7063C22.0969 16.3156 22.0969 15.6813 21.7063 15.2906C21.3156 14.9 20.6812 14.9 20.2906 15.2906L18 17.5844V10ZM11 20C9.89688 20 9 20.8969 9 22V23C9 24.1031 9.89688 25 11 25H23C24.1031 25 25 24.1031 25 23V22C25 20.8969 24.1031 20 23 20H19.8281L18.4125 21.4156C17.6313 22.1969 16.3656 22.1969 15.5844 21.4156L14.1719 20H11ZM22.5 21.75C22.6989 21.75 22.8897 21.829 23.0303 21.9697C23.171 22.1103 23.25 22.3011 23.25 22.5C23.25 22.6989 23.171 22.8897 23.0303 23.0303C22.8897 23.171 22.6989 23.25 22.5 23.25C22.3011 23.25 22.1103 23.171 21.9697 23.0303C21.829 22.8897 21.75 22.6989 21.75 22.5C21.75 22.3011 21.829 22.1103 21.9697 21.9697C22.1103 21.829 22.3011 21.75 22.5 21.75Z" fill="#0168DE"/>
</g>
<defs>
<clipPath id="clip0_335_1836">
<rect width="16" height="16" fill="white" transform="translate(9 9)"/>
</clipPath>
</defs>
</svg>
