<svg width="30" height="30" viewBox="0 0 30 30" fill="none" xmlns="http://www.w3.org/2000/svg">
<g clip-path="url(#clip0_335_1921)">
<path d="M15 1.875C18.481 1.875 21.8194 3.25781 24.2808 5.71922C26.7422 8.18064 28.125 11.519 28.125 15C28.125 18.481 26.7422 21.8194 24.2808 24.2808C21.8194 26.7422 18.481 28.125 15 28.125C11.519 28.125 8.18064 26.7422 5.71922 24.2808C3.25781 21.8194 1.875 18.481 1.875 15C1.875 11.519 3.25781 8.18064 5.71922 5.71922C8.18064 3.25781 11.519 1.875 15 1.875ZM15 30C18.9782 30 22.7936 28.4196 25.6066 25.6066C28.4196 22.7936 30 18.9782 30 15C30 11.0218 28.4196 7.20644 25.6066 4.3934C22.7936 1.58035 18.9782 0 15 0C11.0218 0 7.20644 1.58035 4.3934 4.3934C1.58035 7.20644 0 11.0218 0 15C0 18.9782 1.58035 22.7936 4.3934 25.6066C7.20644 28.4196 11.0218 30 15 30ZM21.2871 11.9121C21.6504 11.5488 21.6504 10.9512 21.2871 10.5879C20.9238 10.2246 20.3262 10.2246 19.9629 10.5879L13.125 17.4258L10.0371 14.3379C9.67383 13.9746 9.07617 13.9746 8.71289 14.3379C8.34961 14.7012 8.34961 15.2988 8.71289 15.6621L12.4629 19.4121C12.8262 19.7754 13.4238 19.7754 13.7871 19.4121L21.2871 11.9121Z" fill="#47BC4E"/>
</g>
<defs>
<clipPath id="clip0_335_1921">
<rect width="30" height="30" fill="white"/>
</clipPath>
</defs>
</svg>
