<svg width="35" height="30" viewBox="0 0 35 30" fill="none" xmlns="http://www.w3.org/2000/svg">
<g clip-path="url(#clip0_335_1931)">
<path d="M14.6667 3.75H20.7111C21.4549 3.75 22.1337 4.18359 22.4347 4.86328L24.4535 9.375H14.6667V3.75ZM14.6667 11.25H21.2778H25.0556H26H26.9444V11.1094C26.9444 10.582 26.8323 10.0664 26.6198 9.58594L24.1642 4.10156C23.5562 2.74805 22.2045 1.875 20.7111 1.875H6.73333C5.23993 1.875 3.88819 2.74805 3.28021 4.10156L0.824653 9.58594C0.612153 10.0664 0.5 10.582 0.5 11.1094V24.375C0.5 26.4434 2.1941 28.125 4.27778 28.125H17.984C17.5059 27.5508 17.0868 26.918 16.7444 26.25H4.27778C3.23299 26.25 2.38889 25.4121 2.38889 24.375V11.25H12.7778H14.6667ZM12.7778 9.375H2.98507L5.00382 4.86328C5.30486 4.18359 5.98368 3.75 6.72743 3.75H12.7778V9.375ZM26 15C27.7534 15 29.4349 15.6914 30.6748 16.9221C31.9146 18.1528 32.6111 19.822 32.6111 21.5625C32.6111 23.303 31.9146 24.9722 30.6748 26.2029C29.4349 27.4336 27.7534 28.125 26 28.125C24.2466 28.125 22.5651 27.4336 21.3252 26.2029C20.0854 24.9722 19.3889 23.303 19.3889 21.5625C19.3889 19.822 20.0854 18.1528 21.3252 16.9221C22.5651 15.6914 24.2466 15 26 15ZM26 30C28.2543 30 30.4163 29.1111 32.0104 27.5287C33.6045 25.9464 34.5 23.8003 34.5 21.5625C34.5 19.3247 33.6045 17.1786 32.0104 15.5963C30.4163 14.0139 28.2543 13.125 26 13.125C23.7457 13.125 21.5837 14.0139 19.9896 15.5963C18.3955 17.1786 17.5 19.3247 17.5 21.5625C17.5 23.8003 18.3955 25.9464 19.9896 27.5287C21.5837 29.1111 23.7457 30 26 30ZM29.9726 19.0254C29.6066 18.6621 29.0045 18.6621 28.6385 19.0254L25.0556 22.582L23.3615 20.9004C22.9955 20.5371 22.3934 20.5371 22.0274 20.9004C21.6615 21.2637 21.6615 21.8613 22.0274 22.2246L24.3885 24.5684C24.7545 24.9316 25.3566 24.9316 25.7226 24.5684L29.9726 20.3496C30.3385 19.9863 30.3385 19.3887 29.9726 19.0254Z" fill="#0168DE"/>
</g>
<defs>
<clipPath id="clip0_335_1931">
<rect width="34" height="30" fill="white" transform="translate(0.5)"/>
</clipPath>
</defs>
</svg>
