<svg width="258" height="56" viewBox="0 0 258 56" fill="none" xmlns="http://www.w3.org/2000/svg">
<rect x="1" y="0.5" width="256" height="55" rx="9.5" fill="#F9FAFB"/>
<rect x="1" y="0.5" width="256" height="55" rx="9.5" stroke="#E8ECF1"/>
<g clip-path="url(#clip0_335_1925)">
<path d="M65.4375 23.1875C65.4375 25.3203 62.582 29.1211 61.3281 30.6875C61.0273 31.0625 60.4688 31.0625 60.1719 30.6875C58.918 29.1211 56.0625 25.3203 56.0625 23.1875C56.0625 20.5977 58.1602 18.5 60.75 18.5C63.3398 18.5 65.4375 20.5977 65.4375 23.1875ZM65.75 26.3281C65.8867 26.0586 66.0117 25.7891 66.125 25.5234C66.1445 25.4766 66.1641 25.4258 66.1836 25.3789L70.7148 23.5664C71.332 23.3203 72 23.7734 72 24.4375V35.0156C72 35.3984 71.7656 35.7422 71.4102 35.8867L65.75 38.1484V26.3281ZM54.875 23.9023C54.9688 24.4531 55.1562 25.0078 55.375 25.5234C55.4883 25.7891 55.6133 26.0586 55.75 26.3281V36.1484L50.7852 38.1367C50.168 38.3828 49.5 37.9297 49.5 37.2656V26.6875C49.5 26.3047 49.7344 25.9609 50.0898 25.8164L54.8789 23.9023H54.875ZM62.3047 31.4688C62.8477 30.7891 63.6992 29.6836 64.5 28.4609V38.1992L57 36.0547V28.4609C57.8008 29.6836 58.6523 30.7891 59.1953 31.4688C59.9961 32.4688 61.5039 32.4688 62.3047 31.4688ZM60.75 24.4375C61.1644 24.4375 61.5618 24.2729 61.8549 23.9799C62.1479 23.6868 62.3125 23.2894 62.3125 22.875C62.3125 22.4606 62.1479 22.0632 61.8549 21.7701C61.5618 21.4771 61.1644 21.3125 60.75 21.3125C60.3356 21.3125 59.9382 21.4771 59.6451 21.7701C59.3521 22.0632 59.1875 22.4606 59.1875 22.875C59.1875 23.2894 59.3521 23.6868 59.6451 23.9799C59.9382 24.2729 60.3356 24.4375 60.75 24.4375Z" fill="#0168DE"/>
</g>
<path d="M91.108 22.454V23.786H87.688V35H86.05V23.786H82.612V22.454H91.108ZM94.7623 26.738C95.0503 26.174 95.4583 25.736 95.9863 25.424C96.5263 25.112 97.1803 24.956 97.9483 24.956V26.648H97.5163C95.6803 26.648 94.7623 27.644 94.7623 29.636V35H93.1243V25.136H94.7623V26.738ZM99.2271 30.032C99.2271 29.024 99.4311 28.142 99.8391 27.386C100.247 26.618 100.805 26.024 101.513 25.604C102.233 25.184 103.031 24.974 103.907 24.974C104.771 24.974 105.521 25.16 106.157 25.532C106.793 25.904 107.267 26.372 107.579 26.936V25.136H109.235V35H107.579V33.164C107.255 33.74 106.769 34.22 106.121 34.604C105.485 34.976 104.741 35.162 103.889 35.162C103.013 35.162 102.221 34.946 101.513 34.514C100.805 34.082 100.247 33.476 99.8391 32.696C99.4311 31.916 99.2271 31.028 99.2271 30.032ZM107.579 30.05C107.579 29.306 107.429 28.658 107.129 28.106C106.829 27.554 106.421 27.134 105.905 26.846C105.401 26.546 104.843 26.396 104.231 26.396C103.619 26.396 103.061 26.54 102.557 26.828C102.053 27.116 101.651 27.536 101.351 28.088C101.051 28.64 100.901 29.288 100.901 30.032C100.901 30.788 101.051 31.448 101.351 32.012C101.651 32.564 102.053 32.99 102.557 33.29C103.061 33.578 103.619 33.722 104.231 33.722C104.843 33.722 105.401 33.578 105.905 33.29C106.421 32.99 106.829 32.564 107.129 32.012C107.429 31.448 107.579 30.794 107.579 30.05ZM111.391 30.05C111.391 29.03 111.595 28.142 112.003 27.386C112.411 26.618 112.975 26.024 113.695 25.604C114.427 25.184 115.261 24.974 116.197 24.974C117.409 24.974 118.405 25.268 119.185 25.856C119.977 26.444 120.499 27.26 120.751 28.304H118.987C118.819 27.704 118.489 27.23 117.997 26.882C117.517 26.534 116.917 26.36 116.197 26.36C115.261 26.36 114.505 26.684 113.929 27.332C113.353 27.968 113.065 28.874 113.065 30.05C113.065 31.238 113.353 32.156 113.929 32.804C114.505 33.452 115.261 33.776 116.197 33.776C116.917 33.776 117.517 33.608 117.997 33.272C118.477 32.936 118.807 32.456 118.987 31.832H120.751C120.487 32.84 119.959 33.65 119.167 34.262C118.375 34.862 117.385 35.162 116.197 35.162C115.261 35.162 114.427 34.952 113.695 34.532C112.975 34.112 112.411 33.518 112.003 32.75C111.595 31.982 111.391 31.082 111.391 30.05ZM128.445 35L124.575 30.644V35H122.937V21.68H124.575V29.51L128.373 25.136H130.659L126.015 30.05L130.677 35H128.445ZM145.783 22.454L141.697 30.266V35H140.059V30.266L135.955 22.454H137.773L140.869 28.808L143.965 22.454H145.783ZM151.813 35.162C150.889 35.162 150.049 34.952 149.293 34.532C148.549 34.112 147.961 33.518 147.529 32.75C147.109 31.97 146.899 31.07 146.899 30.05C146.899 29.042 147.115 28.154 147.547 27.386C147.991 26.606 148.591 26.012 149.347 25.604C150.103 25.184 150.949 24.974 151.885 24.974C152.821 24.974 153.667 25.184 154.423 25.604C155.179 26.012 155.773 26.6 156.205 27.368C156.649 28.136 156.871 29.03 156.871 30.05C156.871 31.07 156.643 31.97 156.187 32.75C155.743 33.518 155.137 34.112 154.369 34.532C153.601 34.952 152.749 35.162 151.813 35.162ZM151.813 33.722C152.401 33.722 152.953 33.584 153.469 33.308C153.985 33.032 154.399 32.618 154.711 32.066C155.035 31.514 155.197 30.842 155.197 30.05C155.197 29.258 155.041 28.586 154.729 28.034C154.417 27.482 154.009 27.074 153.505 26.81C153.001 26.534 152.455 26.396 151.867 26.396C151.267 26.396 150.715 26.534 150.211 26.81C149.719 27.074 149.323 27.482 149.023 28.034C148.723 28.586 148.573 29.258 148.573 30.05C148.573 30.854 148.717 31.532 149.005 32.084C149.305 32.636 149.701 33.05 150.193 33.326C150.685 33.59 151.225 33.722 151.813 33.722ZM167.773 25.136V35H166.135V33.542C165.823 34.046 165.385 34.442 164.821 34.73C164.269 35.006 163.657 35.144 162.985 35.144C162.217 35.144 161.527 34.988 160.915 34.676C160.303 34.352 159.817 33.872 159.457 33.236C159.109 32.6 158.935 31.826 158.935 30.914V25.136H160.555V30.698C160.555 31.67 160.801 32.42 161.293 32.948C161.785 33.464 162.457 33.722 163.309 33.722C164.185 33.722 164.875 33.452 165.379 32.912C165.883 32.372 166.135 31.586 166.135 30.554V25.136H167.773ZM172.176 26.738C172.464 26.174 172.872 25.736 173.4 25.424C173.94 25.112 174.594 24.956 175.362 24.956V26.648H174.93C173.094 26.648 172.176 27.644 172.176 29.636V35H170.538V25.136H172.176V26.738ZM183.69 22.454V35H182.052V22.454H183.69ZM190.388 22.454C191.756 22.454 192.938 22.712 193.934 23.228C194.942 23.732 195.71 24.458 196.238 25.406C196.778 26.354 197.048 27.47 197.048 28.754C197.048 30.038 196.778 31.154 196.238 32.102C195.71 33.038 194.942 33.758 193.934 34.262C192.938 34.754 191.756 35 190.388 35H186.482V22.454H190.388ZM190.388 33.65C192.008 33.65 193.244 33.224 194.096 32.372C194.948 31.508 195.374 30.302 195.374 28.754C195.374 27.194 194.942 25.976 194.078 25.1C193.226 24.224 191.996 23.786 190.388 23.786H188.12V33.65H190.388ZM207.596 26.126C207.596 27.17 207.236 28.04 206.516 28.736C205.808 29.42 204.722 29.762 203.258 29.762H200.846V35H199.208V22.454H203.258C204.674 22.454 205.748 22.796 206.48 23.48C207.224 24.164 207.596 25.046 207.596 26.126ZM203.258 28.412C204.17 28.412 204.842 28.214 205.274 27.818C205.706 27.422 205.922 26.858 205.922 26.126C205.922 24.578 205.034 23.804 203.258 23.804H200.846V28.412H203.258Z" fill="#0168DE"/>
<defs>
<clipPath id="clip0_335_1925">
<rect width="22.5" height="20" fill="white" transform="translate(49.5 18.5)"/>
</clipPath>
</defs>
</svg>
