<svg width="16" height="17" viewBox="0 0 16 17" fill="none" xmlns="http://www.w3.org/2000/svg">
<path d="M8.00065 2.28662C4.32732 2.28662 1.33398 5.27995 1.33398 8.95329C1.33398 12.6266 4.32732 15.62 8.00065 15.62C11.674 15.62 14.6673 12.6266 14.6673 8.95329C14.6673 5.27995 11.674 2.28662 8.00065 2.28662ZM10.7073 8.46662L8.35398 10.82C8.25398 10.92 8.12732 10.9666 8.00065 10.9666C7.87398 10.9666 7.74732 10.92 7.64732 10.82L5.29398 8.46662C5.10065 8.27329 5.10065 7.95329 5.29398 7.75995C5.48732 7.56662 5.80732 7.56662 6.00065 7.75995L8.00065 9.75995L10.0007 7.75995C10.194 7.56662 10.514 7.56662 10.7073 7.75995C10.9007 7.95329 10.9007 8.26662 10.7073 8.46662Z" fill="#04DA8D"/>
</svg>
