<svg width="1255" height="217" viewBox="0 0 1255 217" fill="none" xmlns="http://www.w3.org/2000/svg">
<g clip-path="url(#clip0_406_5337)">
<rect width="1255" height="217" rx="20" fill="url(#paint0_radial_406_5337)"/>
<path d="M-69.0273 566.417V489.88H-115V489.38H-69.0273L-69.0273 412.843H-115V412.343H-69.0273L-69.0273 335.806H-115V335.306H-69.0273V258.769H-115V258.269H-69.0273V181.731H-115V181.231H-69.0273V104.694H-115V104.194H-69.0273V27.6572H-115V27.1572H-69.0273L-69.0273 -49.3799H-115V-49.8799H-69.0273L-69.0273 -126.417H-115V-126.917H-69.0273V-196H-68.5273V-126.917H8.00781L8.00781 -196H8.50781L8.50781 -126.917H85.0469V-196H85.5469V-126.917H162.086V-196H162.586V-126.917H239.121V-196H239.621V-126.917H316.156V-196H316.656V-126.917H393.195V-196H393.695V-126.917H470.234V-196H470.734V-126.917H547.266V-196H547.766V-126.917H624.305V-196H624.805V-126.917H701.344V-196H701.844V-126.917H778.379V-196H778.879V-126.917L855.418 -126.917V-196H855.918V-126.917H932.453V-196H932.953V-126.917H1009.49V-196H1009.99V-126.917H1086.53V-196H1087.03V-126.917H1163.57V-196H1164.07V-126.917H1240.6V-196H1241.1V-126.917H1317.64V-196H1318.14V-126.917H1364.11V-126.417H1318.14V-49.8799H1364.11V-49.3799H1318.14V27.1572H1364.11V27.6572H1318.14V104.194H1364.11V104.694H1318.14V181.231H1364.11V181.731H1318.14V258.269H1364.11V258.769H1318.14V335.306H1364.11V335.806H1318.14V412.343H1364.11V412.843H1318.14V489.38H1364.11V489.88H1318.14V566.417H1364.11V566.917H1318.14V636H1317.64V566.917H1241.1V636H1240.6V566.917H1164.07V636H1163.57V566.917H1087.03V636H1086.53V566.917H1009.99V636H1009.49V566.917H932.953V636H932.453V566.917L855.918 566.917V636H855.418V566.917H778.879V636H778.379V566.917H701.844V636H701.344V566.917H624.805V636H624.305V566.917H547.766V636H547.266V566.917H470.734V636H470.234V566.917H393.695V636H393.195V566.917H316.656V636H316.156V566.917H239.621V636H239.121V566.917H162.586V636H162.086V566.917H85.5469V636H85.0469V566.917H8.50781V636H8.00781V566.917H-68.5273V636H-69.0273V566.917H-115V566.417H-69.0273ZM1241.1 566.417H1317.64V489.88H1241.1V566.417ZM1241.1 489.38H1317.64V412.843H1241.1V489.38ZM1241.1 412.343H1317.64V335.806L1241.1 335.806V412.343ZM1241.1 335.306L1317.64 335.306V258.769L1241.1 258.769V335.306ZM1241.1 258.269L1317.64 258.269V181.731L1241.1 181.731V258.269ZM1241.1 181.231L1317.64 181.231V104.694H1241.1V181.231ZM1241.1 104.194H1317.64V27.6572H1241.1V104.194ZM1241.1 27.1572H1317.64V-49.3799H1241.1V27.1572ZM1241.1 -49.8799H1317.64V-126.417H1241.1V-49.8799ZM1240.6 566.417V489.88H1164.07V566.417H1240.6ZM1240.6 489.38V412.843H1164.07V489.38H1240.6ZM1240.6 412.343V335.806H1164.07V412.343H1240.6ZM1240.6 335.306V258.769H1164.07V335.306H1240.6ZM1240.6 258.269V181.731H1164.07V258.269H1240.6ZM1240.6 181.231V104.694H1164.07V181.231H1240.6ZM1240.6 104.194V27.6572H1164.07V104.194H1240.6ZM1240.6 27.1572V-49.3799H1164.07V27.1572H1240.6ZM1240.6 -49.8799V-126.417H1164.07V-49.8799H1240.6ZM1163.57 566.417V489.88H1087.03V566.417H1163.57ZM1163.57 489.38V412.843H1087.03V489.38H1163.57ZM1163.57 412.343V335.806H1087.03V412.343H1163.57ZM1163.57 335.306V258.769H1087.03V335.306H1163.57ZM1163.57 258.269V181.731H1087.03V258.269H1163.57ZM1163.57 181.231V104.694H1087.03V181.231H1163.57ZM1163.57 104.194V27.6572H1087.03V104.194H1163.57ZM1163.57 27.1572V-49.3799H1087.03V27.1572H1163.57ZM1163.57 -49.8799V-126.417H1087.03V-49.8799H1163.57ZM1086.53 566.417V489.88L1009.99 489.88V566.417H1086.53ZM1086.53 489.38V412.843L1009.99 412.843V489.38L1086.53 489.38ZM1086.53 412.343V335.806H1009.99V412.343L1086.53 412.343ZM1086.53 335.306V258.769H1009.99V335.306H1086.53ZM1086.53 258.269V181.731H1009.99V258.269H1086.53ZM1086.53 181.231V104.694H1009.99V181.231H1086.53ZM1086.53 104.194V27.6572H1009.99V104.194H1086.53ZM1086.53 27.1572V-49.3799H1009.99V27.1572H1086.53ZM1086.53 -49.8799V-126.417H1009.99V-49.8799H1086.53ZM1009.49 566.417V489.88H932.953V566.417H1009.49ZM1009.49 489.38V412.843H932.953V489.38H1009.49ZM1009.49 412.343V335.806H932.953V412.343H1009.49ZM1009.49 335.306V258.769H932.953V335.306H1009.49ZM1009.49 258.269V181.731H932.953V258.269H1009.49ZM1009.49 181.231V104.694H932.953V181.231H1009.49ZM1009.49 104.194V27.6572H932.953V104.194H1009.49ZM1009.49 27.1572V-49.3799H932.953V27.1572H1009.49ZM1009.49 -49.8799V-126.417H932.953V-49.8799H1009.49ZM932.453 566.417V489.88H855.918V566.417L932.453 566.417ZM932.453 489.38V412.843H855.918V489.38H932.453ZM932.453 412.343V335.806H855.918V412.343H932.453ZM932.453 335.306V258.769H855.918V335.306H932.453ZM932.453 258.269V181.731H855.918V258.269H932.453ZM932.453 181.231V104.694H855.918V181.231H932.453ZM932.453 104.194V27.6572H855.918V104.194H932.453ZM932.453 27.1572V-49.3799H855.918V27.1572H932.453ZM932.453 -49.8799V-126.417H855.918V-49.8799H932.453ZM855.418 566.417V489.88H778.879V566.417H855.418ZM855.418 489.38V412.843H778.879V489.38H855.418ZM855.418 412.343V335.806H778.879V412.343H855.418ZM855.418 335.306V258.769H778.879V335.306H855.418ZM855.418 258.269V181.731H778.879V258.269H855.418ZM855.418 181.231V104.694L778.879 104.694V181.231H855.418ZM855.418 104.194V27.6572L778.879 27.6572V104.194L855.418 104.194ZM855.418 27.1572V-49.3799L778.879 -49.3799V27.1572L855.418 27.1572ZM855.418 -49.8799V-126.417L778.879 -126.417V-49.8799L855.418 -49.8799ZM778.379 566.417V489.88H701.844V566.417H778.379ZM778.379 489.38V412.843H701.844V489.38H778.379ZM778.379 412.343V335.806H701.844V412.343H778.379ZM778.379 335.306V258.769H701.844V335.306H778.379ZM778.379 258.269V181.731H701.844V258.269H778.379ZM778.379 181.231V104.694H701.844V181.231H778.379ZM778.379 104.194V27.6572H701.844V104.194H778.379ZM778.379 27.1572V-49.3799H701.844V27.1572H778.379ZM778.379 -49.8799V-126.417H701.844V-49.8799H778.379ZM701.344 566.417V489.88H624.805V566.417H701.344ZM701.344 489.38V412.843H624.805V489.38H701.344ZM701.344 412.343V335.806H624.805V412.343H701.344ZM701.344 335.306V258.769H624.805V335.306H701.344ZM701.344 258.269V181.731H624.805V258.269H701.344ZM701.344 181.231V104.694H624.805V181.231H701.344ZM701.344 104.194V27.6572H624.805V104.194H701.344ZM701.344 27.1572V-49.3799H624.805V27.1572H701.344ZM701.344 -49.8799V-126.417H624.805V-49.8799H701.344ZM624.305 566.417V489.88L547.766 489.88V566.417H624.305ZM624.305 489.38V412.843L547.766 412.843V489.38L624.305 489.38ZM624.305 412.343V335.806H547.766V412.343L624.305 412.343ZM624.305 335.306V258.769H547.766V335.306H624.305ZM624.305 258.269V181.731H547.766V258.269H624.305ZM624.305 181.231V104.694H547.766V181.231H624.305ZM624.305 104.194V27.6572H547.766V104.194H624.305ZM624.305 27.1572V-49.3799H547.766V27.1572H624.305ZM624.305 -49.8799V-126.417H547.766V-49.8799H624.305ZM547.266 566.417V489.88H470.734V566.417H547.266ZM547.266 489.38V412.843H470.734V489.38H547.266ZM547.266 412.343V335.806H470.734V412.343H547.266ZM547.266 335.306V258.769H470.734V335.306H547.266ZM547.266 258.269V181.731H470.734V258.269H547.266ZM547.266 181.231V104.694H470.734V181.231H547.266ZM547.266 104.194V27.6572H470.734V104.194H547.266ZM547.266 27.1572V-49.3799H470.734V27.1572H547.266ZM547.266 -49.8799V-126.417H470.734V-49.8799H547.266ZM470.234 566.417V489.88H393.695V566.417H470.234ZM470.234 489.38V412.843H393.695V489.38H470.234ZM470.234 412.343V335.806H393.695V412.343H470.234ZM470.234 335.306V258.769H393.695V335.306H470.234ZM470.234 258.269V181.731H393.695V258.269H470.234ZM470.234 181.231V104.694H393.695L393.695 181.231H470.234ZM470.234 104.194V27.6572H393.695V104.194H470.234ZM470.234 27.1572V-49.3799H393.695V27.1572H470.234ZM470.234 -49.8799V-126.417H393.695V-49.8799H470.234ZM393.195 566.417V489.88H316.656V566.417H393.195ZM393.195 489.38V412.843H316.656V489.38H393.195ZM393.195 412.343V335.806L316.656 335.806V412.343H393.195ZM393.195 335.306V258.769L316.656 258.769V335.306L393.195 335.306ZM393.195 258.269V181.731L316.656 181.731V258.269L393.195 258.269ZM393.195 181.231L393.195 104.694H316.656L316.656 181.231L393.195 181.231ZM393.195 104.194V27.6572H316.656V104.194H393.195ZM393.195 27.1572V-49.3799H316.656V27.1572H393.195ZM393.195 -49.8799V-126.417H316.656V-49.8799H393.195ZM316.156 566.417V489.88H239.621V566.417H316.156ZM316.156 489.38V412.843H239.621V489.38H316.156ZM316.156 412.343V335.806H239.621V412.343H316.156ZM316.156 335.306V258.769H239.621V335.306H316.156ZM316.156 258.269V181.731H239.621V258.269H316.156ZM316.156 181.231L316.156 104.694H239.621L239.621 181.231H316.156ZM316.156 104.194V27.6572H239.621V104.194H316.156ZM316.156 27.1572V-49.3799H239.621V27.1572H316.156ZM316.156 -49.8799V-126.417H239.621V-49.8799H316.156ZM239.121 566.417V489.88H162.586V566.417H239.121ZM239.121 489.38V412.843H162.586V489.38H239.121ZM239.121 412.343V335.806H162.586V412.343H239.121ZM239.121 335.306V258.769H162.586V335.306H239.121ZM239.121 258.269V181.731H162.586V258.269H239.121ZM239.121 181.231L239.121 104.694H162.586L162.586 181.231H239.121ZM239.121 104.194V27.6572H162.586V104.194H239.121ZM239.121 27.1572V-49.3799H162.586V27.1572H239.121ZM239.121 -49.8799V-126.417H162.586V-49.8799H239.121ZM162.086 566.417V489.88H85.5469V566.417H162.086ZM162.086 489.38V412.843H85.5469V489.38H162.086ZM162.086 412.343V335.806H85.5469L85.5469 412.343H162.086ZM162.086 335.306V258.769H85.5469V335.306H162.086ZM162.086 258.269V181.731H85.5469V258.269H162.086ZM162.086 181.231L162.086 104.694H85.5469V181.231H162.086ZM162.086 104.194V27.6572H85.5469V104.194H162.086ZM162.086 27.1572V-49.3799H85.5469V27.1572H162.086ZM162.086 -49.8799V-126.417H85.5469L85.5469 -49.8799H162.086ZM85.0469 566.417V489.88H8.50781L8.50781 566.417H85.0469ZM85.0469 489.38V412.843H8.50781V489.38H85.0469ZM85.0469 412.343L85.0469 335.806H8.50781V412.343H85.0469ZM85.0469 335.306V258.769H8.50781L8.50781 335.306H85.0469ZM85.0469 258.269V181.731H8.50781V258.269H85.0469ZM85.0469 181.231V104.694H8.50781V181.231H85.0469ZM85.0469 104.194V27.6572H8.50781L8.50781 104.194H85.0469ZM85.0469 27.1572V-49.3799H8.50781V27.1572H85.0469ZM85.0469 -49.8799L85.0469 -126.417H8.50781V-49.8799H85.0469ZM8.00781 566.417L8.00781 489.88H-68.5273V566.417H8.00781ZM8.00781 489.38V412.843H-68.5273L-68.5273 489.38H8.00781ZM8.00781 412.343V335.806H-68.5273L-68.5273 412.343H8.00781ZM8.00781 335.306L8.00781 258.769H-68.5273V335.306H8.00781ZM8.00781 258.269V181.731H-68.5273V258.269H8.00781ZM8.00781 181.231V104.694H-68.5273V181.231H8.00781ZM8.00781 104.194L8.00781 27.6572H-68.5273V104.194H8.00781ZM8.00781 27.1572V-49.3799H-68.5273L-68.5273 27.1572H8.00781ZM8.00781 -49.8799V-126.417H-68.5273L-68.5273 -49.8799H8.00781Z" fill="white" fill-opacity="0.15"/>
<circle opacity="0.06" cx="80" cy="-231" r="372" stroke="white" stroke-width="100"/>
<g opacity="0.55" filter="url(#filter0_f_406_5337)">
<circle cx="1255" cy="245" r="220" fill="white"/>
</g>
</g>
<defs>
<filter id="filter0_f_406_5337" x="735" y="-275" width="1040" height="1040" filterUnits="userSpaceOnUse" color-interpolation-filters="sRGB">
<feFlood flood-opacity="0" result="BackgroundImageFix"/>
<feBlend mode="normal" in="SourceGraphic" in2="BackgroundImageFix" result="shape"/>
<feGaussianBlur stdDeviation="150" result="effect1_foregroundBlur_406_5337"/>
</filter>
<radialGradient id="paint0_radial_406_5337" cx="0" cy="0" r="1" gradientTransform="matrix(1234.08 229.457 -1327.05 213.383 -37.7662 -4.11897)" gradientUnits="userSpaceOnUse">
<stop stop-color="#0256B6"/>
<stop offset="1" stop-color="#0168DE"/>
</radialGradient>
<clipPath id="clip0_406_5337">
<rect width="1255" height="217" rx="20" fill="white"/>
</clipPath>
</defs>
</svg>
