<svg width="127" height="124" viewBox="0 0 127 124" fill="none" xmlns="http://www.w3.org/2000/svg">
<g clip-path="url(#clip0_626_3624)">
<path d="M64.5048 95.852C82.5042 95.852 97.0955 81.3207 97.0955 63.3955C97.0955 45.4702 82.5042 30.939 64.5048 30.939C46.5054 30.939 31.9141 45.4702 31.9141 63.3955C31.9141 81.3207 46.5054 95.852 64.5048 95.852Z" fill="#16BE01"/>
<path d="M51.8711 61.7016L61.1003 71.1121L77.1361 54.936" stroke="white" stroke-width="9"/>
<path d="M123.703 70.6002C125.523 70.6002 126.999 69.1303 126.999 67.3172C126.999 65.504 125.523 64.0342 123.703 64.0342C121.882 64.0342 120.406 65.504 120.406 67.3172C120.406 69.1303 121.882 70.6002 123.703 70.6002Z" fill="#7849E5"/>
<path opacity="0.413" d="M53.4212 7.87229C55.604 7.87229 57.3736 6.11002 57.3736 3.93614C57.3736 1.76227 55.604 0 53.4212 0C51.2383 0 49.4688 1.76227 49.4688 3.93614C49.4688 6.11002 51.2383 7.87229 53.4212 7.87229Z" fill="#1088FF"/>
<path d="M64.3804 14.1538C65.3606 14.1538 66.1553 13.3625 66.1553 12.3862C66.1553 11.41 65.3606 10.6187 64.3804 10.6187C63.4001 10.6187 62.6055 11.41 62.6055 12.3862C62.6055 13.3625 63.4001 14.1538 64.3804 14.1538Z" fill="#16BE00"/>
<path d="M23.0536 43.8762C25.1543 43.8762 26.8572 42.1802 26.8572 40.0882C26.8572 37.9962 25.1543 36.3003 23.0536 36.3003C20.9529 36.3003 19.25 37.9962 19.25 40.0882C19.25 42.1802 20.9529 43.8762 23.0536 43.8762Z" fill="#F40354"/>
<path opacity="0.413" d="M35.4503 103.364C36.6503 103.364 37.6232 102.395 37.6232 101.2C37.6232 100.004 36.6503 99.0356 35.4503 99.0356C34.2502 99.0356 33.2773 100.004 33.2773 101.2C33.2773 102.395 34.2502 103.364 35.4503 103.364Z" fill="#7849E5"/>
<path d="M59.3204 122.85C61.2038 122.85 62.7306 121.33 62.7306 119.454C62.7306 117.579 61.2038 116.058 59.3204 116.058C57.437 116.058 55.9102 117.579 55.9102 119.454C55.9102 121.33 57.437 122.85 59.3204 122.85Z" stroke="#1088FF" stroke-width="4"/>
<path d="M66.8451 114.91C67.9655 114.91 68.8738 114.005 68.8738 112.889C68.8738 111.774 67.9655 110.869 66.8451 110.869C65.7247 110.869 64.8164 111.774 64.8164 112.889C64.8164 114.005 65.7247 114.91 66.8451 114.91Z" fill="#B6D7F7"/>
<path d="M118.089 58.9162C118.89 58.9162 119.54 58.2689 119.54 57.4703C119.54 56.6718 118.89 56.0244 118.089 56.0244C117.287 56.0244 116.637 56.6718 116.637 57.4703C116.637 58.2689 117.287 58.9162 118.089 58.9162Z" fill="#1088FF"/>
<path d="M94.5547 95.8516C94.5547 95.8516 103.077 97.4506 103.693 107.686" stroke="#7849E5" stroke-width="4" stroke-linecap="round"/>
<path d="M1.43359 83.9527C1.43359 83.9527 10.2446 86.572 12.8894 78.5285C15.5341 70.485 8.97907 70.3918 7.99328 73.0791C7.00748 75.7663 8.99291 79.7595 15.4666 78.5285C19.4023 77.6984 21.3243 74.1483 21.3243 74.1483" stroke="#1088FF" stroke-width="4" stroke-linecap="round"/>
<path d="M103.695 30.9205C103.695 30.9205 111.979 31.6608 114.061 23.8402C116.144 16.0197 117.415 15.1664 120.118 14.1548" stroke="#7849E5" stroke-width="4" stroke-linecap="round"/>
</g>
<defs>
<clipPath id="clip0_626_3624">
<rect width="127" height="124" fill="white"/>
</clipPath>
</defs>
</svg>
