<svg width="18" height="18" viewBox="0 0 18 18" fill="none" xmlns="http://www.w3.org/2000/svg">
<path d="M9 18C13.9711 18 18 13.9711 18 9C18 4.02891 13.9711 0 9 0C4.02891 0 0 4.02891 0 9C0 13.9711 4.02891 18 9 18ZM11.9672 7.47773L9.15469 11.9777C9.00703 12.2133 8.75391 12.3609 8.47617 12.375C8.19844 12.3891 7.93125 12.2625 7.76602 12.0375L6.07852 9.7875C5.79727 9.41484 5.87461 8.8875 6.24727 8.60625C6.61992 8.325 7.14727 8.40234 7.42852 8.775L8.37773 10.0406L10.5363 6.58477C10.7824 6.19102 11.3027 6.06797 11.7 6.31758C12.0973 6.56719 12.2168 7.08398 11.9672 7.48125V7.47773Z" fill="#04DA8D"/>
</svg>
